<svg width="23" height="18" viewBox="0 0 23 18" fill="none" xmlns="http://www.w3.org/2000/svg">
<g clip-path="url(#clip0_85_38)">
<path d="M20.4444 0.833374H2.55555C2.21666 0.833374 1.89165 0.967997 1.65202 1.20763C1.41239 1.44726 1.27777 1.77226 1.27777 2.11115V14.8889C1.27777 15.2278 1.41239 15.5528 1.65202 15.7925C1.89165 16.0321 2.21666 16.1667 2.55555 16.1667H20.4444C20.7833 16.1667 21.1083 16.0321 21.348 15.7925C21.5876 15.5528 21.7222 15.2278 21.7222 14.8889V2.11115C21.7222 1.77226 21.5876 1.44726 21.348 1.20763C21.1083 0.967997 20.7833 0.833374 20.4444 0.833374ZM19.4605 14.8889H3.6161L8.08833 10.2634L7.16833 9.37532L2.55555 14.1478V3.08226L10.4969 10.9853C10.7363 11.2233 11.0602 11.3569 11.3978 11.3569C11.7353 11.3569 12.0592 11.2233 12.2986 10.9853L20.4444 2.88421V14.0648L15.7422 9.36254L14.8414 10.2634L19.4605 14.8889ZM3.39249 2.11115H19.4094L11.3978 10.0781L3.39249 2.11115Z" fill="#083343"/>
</g>
<defs>
<clipPath id="clip0_85_38">
<rect width="23" height="18" fill="white"/>
</clipPath>
</defs>
</svg>
