<svg width="19" height="19" viewBox="0 0 19 19" fill="none" xmlns="http://www.w3.org/2000/svg">
<path d="M6.15283 1.93089L7.00546 1.65855C7.80346 1.40364 8.65687 1.8161 8.99887 2.62201L9.67971 4.22751C9.97658 4.92655 9.81191 5.7491 9.27279 6.26051L7.77416 7.68393C7.86679 8.53576 8.15258 9.37414 8.63233 10.1991C9.08819 10.9972 9.69955 11.6958 10.4302 12.2534L12.232 11.6518C12.9145 11.4246 13.6578 11.6866 14.0766 12.3017L15.052 13.7346C15.5396 14.4503 15.4517 15.4367 14.8477 16.0431L14.2001 16.6931C13.5557 17.3399 12.6358 17.575 11.784 17.309C9.77391 16.682 7.92616 14.8208 6.23991 11.7254C4.55129 8.62522 3.95596 5.99372 4.45233 3.83405C4.66133 2.92522 5.30891 2.20085 6.15441 1.93089H6.15283Z" fill="#083343"/>
</svg>
