<svg width="25" height="25" viewBox="0 0 25 25" fill="none" xmlns="http://www.w3.org/2000/svg">
<path d="M8.12498 2.0835H16.875C20.2083 2.0835 22.9166 4.79183 22.9166 8.12516V16.8752C22.9166 18.4775 22.2801 20.0142 21.1471 21.1473C20.0141 22.2803 18.4773 22.9168 16.875 22.9168H8.12498C4.79165 22.9168 2.08331 20.2085 2.08331 16.8752V8.12516C2.08331 6.52281 2.71984 4.98609 3.85288 3.85306C4.98591 2.72003 6.52263 2.0835 8.12498 2.0835ZM7.91665 4.16683C6.92208 4.16683 5.96826 4.56192 5.265 5.26518C4.56173 5.96844 4.16665 6.92227 4.16665 7.91683V17.0835C4.16665 19.1564 5.84373 20.8335 7.91665 20.8335H17.0833C18.0779 20.8335 19.0317 20.4384 19.735 19.7351C20.4382 19.0319 20.8333 18.0781 20.8333 17.0835V7.91683C20.8333 5.84391 19.1562 4.16683 17.0833 4.16683H7.91665ZM17.9687 5.72933C18.3141 5.72933 18.6453 5.86651 18.8894 6.1107C19.1336 6.35489 19.2708 6.68608 19.2708 7.03141C19.2708 7.37675 19.1336 7.70794 18.8894 7.95212C18.6453 8.19631 18.3141 8.3335 17.9687 8.3335C17.6234 8.3335 17.2922 8.19631 17.048 7.95212C16.8038 7.70794 16.6666 7.37675 16.6666 7.03141C16.6666 6.68608 16.8038 6.35489 17.048 6.1107C17.2922 5.86651 17.6234 5.72933 17.9687 5.72933ZM12.5 7.29183C13.8813 7.29183 15.2061 7.84056 16.1828 8.81731C17.1596 9.79407 17.7083 11.1188 17.7083 12.5002C17.7083 13.8815 17.1596 15.2063 16.1828 16.183C15.2061 17.1598 13.8813 17.7085 12.5 17.7085C11.1186 17.7085 9.79388 17.1598 8.81713 16.183C7.84038 15.2063 7.29165 13.8815 7.29165 12.5002C7.29165 11.1188 7.84038 9.79407 8.81713 8.81731C9.79388 7.84056 11.1186 7.29183 12.5 7.29183ZM12.5 9.37516C11.6712 9.37516 10.8763 9.7044 10.2903 10.2905C9.70422 10.8765 9.37498 11.6714 9.37498 12.5002C9.37498 13.329 9.70422 14.1238 10.2903 14.7099C10.8763 15.2959 11.6712 15.6252 12.5 15.6252C13.3288 15.6252 14.1236 15.2959 14.7097 14.7099C15.2957 14.1238 15.625 13.329 15.625 12.5002C15.625 11.6714 15.2957 10.8765 14.7097 10.2905C14.1236 9.7044 13.3288 9.37516 12.5 9.37516Z" fill="#E4E4E4"/>
</svg>
