<svg width="28" height="28" viewBox="0 0 28 28" fill="none" xmlns="http://www.w3.org/2000/svg">
<path d="M19.8333 21C20.4522 21 21.0457 21.2458 21.4832 21.6834C21.9208 22.121 22.1667 22.7145 22.1667 23.3333C22.1667 23.9522 21.9208 24.5456 21.4832 24.9832C21.0457 25.4208 20.4522 25.6666 19.8333 25.6666C19.2145 25.6666 18.621 25.4208 18.1834 24.9832C17.7458 24.5456 17.5 23.9522 17.5 23.3333C17.5 22.0383 18.5383 21 19.8333 21ZM1.16666 2.33331H4.98166L6.07832 4.66665H23.3333C23.6427 4.66665 23.9395 4.78956 24.1583 5.00836C24.3771 5.22715 24.5 5.52389 24.5 5.83331C24.5 6.03165 24.4417 6.22998 24.36 6.41665L20.1833 13.965C19.7867 14.6766 19.0167 15.1666 18.1417 15.1666H9.44999L8.39999 17.0683L8.36499 17.2083C8.36499 17.2857 8.39572 17.3599 8.45042 17.4146C8.50512 17.4693 8.5793 17.5 8.65666 17.5H22.1667V19.8333H8.16666C7.54782 19.8333 6.95433 19.5875 6.51674 19.1499C6.07916 18.7123 5.83332 18.1188 5.83332 17.5C5.83332 17.0916 5.93832 16.7066 6.11332 16.38L7.69999 13.5216L3.49999 4.66665H1.16666V2.33331ZM8.16666 21C8.7855 21 9.37899 21.2458 9.81657 21.6834C10.2542 22.121 10.5 22.7145 10.5 23.3333C10.5 23.9522 10.2542 24.5456 9.81657 24.9832C9.37899 25.4208 8.7855 25.6666 8.16666 25.6666C7.54782 25.6666 6.95433 25.4208 6.51674 24.9832C6.07916 24.5456 5.83332 23.9522 5.83332 23.3333C5.83332 22.0383 6.87166 21 8.16666 21ZM18.6667 12.8333L21.91 6.99998H7.16332L9.91666 12.8333H18.6667Z" fill="#083343"/>
</svg>
