<svg width="27" height="27" viewBox="0 0 27 27" fill="none" xmlns="http://www.w3.org/2000/svg">
<path d="M18.6999 16.319C18.6215 16.3314 18.5414 16.3283 18.4642 16.3097C18.387 16.2911 18.3143 16.2575 18.2501 16.2108C18.1859 16.1641 18.1316 16.1052 18.0902 16.0375C18.0488 15.9697 18.0212 15.8945 18.0089 15.8161L17.04 9.66246L10.0787 19.227C9.98446 19.3566 9.84261 19.4433 9.68438 19.4682C9.52614 19.4932 9.36449 19.4542 9.23497 19.36C9.10546 19.2657 9.0187 19.1238 8.99377 18.9656C8.96884 18.8074 9.0078 18.6457 9.10206 18.5162L16.0634 8.95162L9.90989 9.9215C9.75157 9.94644 9.58982 9.90747 9.46024 9.81315C9.33065 9.71883 9.24384 9.5769 9.2189 9.41858C9.19396 9.26026 9.23293 9.09852 9.32725 8.96893C9.42156 8.83935 9.56349 8.75253 9.72182 8.72759L17.3156 7.53138C17.394 7.51898 17.474 7.52216 17.5512 7.54074C17.6284 7.55931 17.7011 7.59291 17.7653 7.63962C17.8295 7.68632 17.8838 7.74522 17.9252 7.81294C17.9666 7.88067 17.9942 7.95588 18.0066 8.0343L19.2028 15.628C19.2152 15.7064 19.212 15.7865 19.1934 15.8637C19.1748 15.9409 19.1412 16.0136 19.0945 16.0778C19.0478 16.142 18.9889 16.1963 18.9212 16.2377C18.8535 16.2791 18.7783 16.3067 18.6999 16.319Z" fill="#083343"/>
</svg>
