<svg width="16" height="16" viewBox="0 0 16 16" fill="none" xmlns="http://www.w3.org/2000/svg">
<path d="M16 8C16 12.4183 12.4183 16 8 16C3.58172 16 0 12.4183 0 8C0 3.58172 3.58172 0 8 0C12.4183 0 16 3.58172 16 8Z" fill="#083343"/>
<path d="M10.3558 7.41051V8.59375C10.3558 9.16051 10.2995 9.64441 10.1868 10.0455C10.0774 10.4432 9.91832 10.7663 9.70952 11.0149C9.50071 11.2635 9.25047 11.4458 8.95881 11.5618C8.67045 11.6778 8.3473 11.7358 7.98935 11.7358C7.70431 11.7358 7.43916 11.6993 7.19389 11.6264C6.95194 11.5535 6.73319 11.4392 6.53764 11.2834C6.34209 11.1276 6.17472 10.9271 6.03551 10.6818C5.89962 10.4332 5.79356 10.1366 5.71733 9.7919C5.64441 9.44721 5.60795 9.04782 5.60795 8.59375V7.41051C5.60795 6.84044 5.6643 6.35985 5.77699 5.96875C5.88968 5.57434 6.05043 5.2545 6.25923 5.00923C6.46804 4.76065 6.71662 4.58002 7.00497 4.46733C7.29664 4.35464 7.62145 4.2983 7.9794 4.2983C8.26776 4.2983 8.53291 4.33475 8.77486 4.40767C9.02012 4.47727 9.23887 4.5883 9.43111 4.74077C9.62666 4.89323 9.79238 5.09209 9.92827 5.33736C10.0675 5.57931 10.1735 5.87263 10.2464 6.21733C10.3194 6.55871 10.3558 6.95644 10.3558 7.41051ZM9.15767 8.76278V7.23153C9.15767 6.94318 9.1411 6.68963 9.10795 6.47088C9.07481 6.24882 9.02509 6.06155 8.95881 5.90909C8.89583 5.75331 8.81629 5.62737 8.72017 5.53125C8.62405 5.43182 8.51468 5.36056 8.39205 5.31747C8.26941 5.27107 8.13187 5.24787 7.9794 5.24787C7.7938 5.24787 7.62808 5.28433 7.48224 5.35724C7.33641 5.42685 7.21378 5.53954 7.11435 5.69531C7.01491 5.85109 6.93868 6.05658 6.88565 6.31179C6.83594 6.56368 6.81108 6.87027 6.81108 7.23153V8.76278C6.81108 9.05445 6.82765 9.31132 6.8608 9.53338C6.89394 9.75545 6.94366 9.94602 7.00994 10.1051C7.07623 10.2609 7.15578 10.3902 7.24858 10.4929C7.3447 10.5923 7.45407 10.6652 7.5767 10.7116C7.70265 10.758 7.8402 10.7812 7.98935 10.7812C8.17827 10.7812 8.34564 10.7448 8.49148 10.6719C8.63731 10.599 8.75994 10.483 8.85938 10.3239C8.95881 10.1615 9.03338 9.95099 9.0831 9.69247C9.13281 9.43395 9.15767 9.12405 9.15767 8.76278Z" fill="white"/>
</svg>
